<svg viewBox="0 0 24 24" xmlns="http://www.w3.org/2000/svg" xmlns:xlink="http://www.w3.org/1999/xlink" width="24.000000" height="24.000000" fill="none">
	<rect id="Delete" width="24.000000" height="24.000000" x="0.000000" y="0.000000" />
	<path id="Rectangle 37672495 (Stroke)" d="M8.24844 0C8.69027 0 9.04844 0.358172 9.04844 0.8L9.04844 7.44844L15.6969 7.44844C16.1387 7.44844 16.4969 7.80661 16.4969 8.24844C16.4969 8.69027 16.1387 9.04844 15.6969 9.04844L9.04844 9.04844L9.04844 15.6969C9.04844 16.1387 8.69027 16.4969 8.24844 16.4969C7.80661 16.4969 7.44844 16.1387 7.44844 15.6969L7.44844 9.04844L0.8 9.04844C0.358172 9.04844 0 8.69027 0 8.24844C0 7.80661 0.358172 7.44844 0.8 7.44844L7.44844 7.44844L7.44844 0.8C7.44844 0.358172 7.80661 0 8.24844 0Z" fill="rgb(0,0,0)" fill-rule="evenodd" transform="matrix(0.707107,0.707107,-0.707107,0.707107,12,0.334961)" />
</svg>
