<svg viewBox="0 0 19.5 18.4873" xmlns="http://www.w3.org/2000/svg" xmlns:xlink="http://www.w3.org/1999/xlink" width="19.500000" height="18.487305" fill="none" customFrame="#000000">
	<path id="Icon" d="M4.49301 8.93825L9.22424 13.6695C9.51457 13.9598 9.98529 13.9598 10.2756 13.6695L15.0069 8.93825C15.2972 8.64792 15.2972 8.17719 15.0069 7.88686C14.7165 7.59653 14.2458 7.59653 13.9555 7.88686L12.2244 9.61791L11.3589 10.4834C11.0714 10.7709 10.8195 11.0918 10.6085 11.4393L10.4617 11.681C10.4387 11.719 10.3802 11.7008 10.3828 11.6565L10.4934 9.71471L10.4934 8.08046L10.4934 4.81196L10.4934 0.743471C10.4934 0.332879 10.1605 3.05176e-05 9.74993 3.05176e-05C9.33934 3.05176e-05 9.00649 0.33288 9.00649 0.743472L9.00649 4.81196L9.00649 8.08046L9.00649 9.71471L9.11314 11.7195C9.11462 11.7474 9.07784 11.7586 9.06353 11.7347L8.88801 11.4414C8.67928 11.0926 8.42838 10.7709 8.14097 10.4834L7.27544 9.61791L5.54439 7.88686C5.25406 7.59653 4.78334 7.59653 4.49301 7.88686C4.20267 8.17719 4.20267 8.64791 4.49301 8.93825ZM1.5 11.7373C1.5 11.3231 1.16421 10.9873 0.75 10.9873C0.335786 10.9873 0 11.3231 0 11.7373L0 15.7373C0 16.4667 0.289731 17.1662 0.805456 17.6819C1.32118 18.1976 2.02065 18.4873 2.75 18.4873L16.75 18.4873C17.4793 18.4873 18.1788 18.1976 18.6945 17.6819C19.2103 17.1662 19.5 16.4667 19.5 15.7373L19.5 11.7373C19.5 11.3231 19.1642 10.9873 18.75 10.9873C18.3358 10.9873 18 11.3231 18 11.7373L18 15.7373C18 16.0689 17.8683 16.3868 17.6339 16.6212C17.3995 16.8556 17.0815 16.9873 16.75 16.9873L2.75 16.9873C2.41848 16.9873 2.10054 16.8556 1.86612 16.6212C1.6317 16.3868 1.5 16.0689 1.5 15.7373L1.5 11.7373Z" fill="rgb(30.6,30.6,30.6)" fill-rule="evenodd" />
</svg>
