<svg viewBox="0 0 11.6082 13.2786" xmlns="http://www.w3.org/2000/svg" xmlns:xlink="http://www.w3.org/1999/xlink" width="11.608154" height="13.278595" fill="none" customFrame="#000000">
	<path id="Vector" d="M6.71356 13.1426C8.84808 12.7152 11.6081 11.1795 11.6081 7.20887C11.6081 3.59603 8.96348 1.18974 7.06181 0.0842436C6.63914 -0.161574 6.14545 0.161403 6.14545 0.649625L6.14545 1.89783C6.14545 2.88247 5.73166 4.67968 4.58178 5.42737C3.99454 5.80907 3.35951 5.23755 3.2885 4.54106L3.22978 3.96885C3.16149 3.30378 2.48413 2.90023 1.95289 3.30583C0.997612 4.03304 0 5.30993 0 7.20819C0 12.0638 3.61148 13.2785 5.41687 13.2785C5.52248 13.2785 5.63265 13.2751 5.74736 13.2683C4.85559 13.1925 3.41414 12.6394 3.41414 10.8504C3.41414 9.45059 4.43497 8.50488 5.21066 8.04397C5.4196 7.92106 5.66337 8.08152 5.66337 8.32393L5.66337 8.7268C5.66337 9.03407 5.78287 9.51546 6.06624 9.84459C6.38717 10.2174 6.85764 9.82683 6.8952 9.33656C6.90749 9.18224 7.06317 9.08391 7.19701 9.16176C7.6347 9.41782 8.19393 9.96408 8.19393 10.8504C8.19393 12.2488 7.42302 12.892 6.71356 13.1426Z" fill="rgb(26,26,26)" fill-opacity="0.400000006" fill-rule="nonzero" />
</svg>
