<svg viewBox="0 0 16 17.5" xmlns="http://www.w3.org/2000/svg" xmlns:xlink="http://www.w3.org/1999/xlink" width="16.000000" height="17.500000" fill="none" customFrame="#000000">
	<path id="Union" d="M5.6 1.66667L1.6 1.66667L1.6 11.6667L4.82197 11.6667C4.97577 10.2174 5.92238 9.01711 7.2 8.54671L7.2 3.33333C7.2 2.41286 6.48366 1.66667 5.6 1.66667ZM8.8 8.35622C10.4686 8.54836 11.7936 9.92849 11.978 11.6667L14.4 11.6667L14.4 1.66667L10.4 1.66667C9.51635 1.66667 8.8 2.41286 8.8 3.33333L8.8 8.35622ZM11.795 13.3333L14.4 13.3333L16 13.3333L16 11.6667L16 1.66667L16 0L14.4 0L10.4 0C9.44425 0 8.58636 0.436463 8 1.12848C7.41365 0.436463 6.55575 0 5.6 0L1.6 0L0 0L0 1.66667L0 11.6667L0 13.3333L1.6 13.3333L5.00497 13.3333C5.21537 13.9532 5.57765 14.498 6.04444 14.9191L6.04443 15.8333L7.6 15.8333L7.6 17.5L9.2 17.5L9.2 15.8333L10.7555 15.8333L10.7555 14.9192C11.2223 14.498 11.5846 13.9532 11.795 13.3333ZM9.2 15.8333L7.64443 15.8333L7.64444 14.5089L7.64445 14.0639L7.28945 13.8163C6.75144 13.4412 6.4 12.8049 6.4 12.0833C6.4 10.9327 7.29543 10 8.4 10C9.50457 10 10.4 10.9327 10.4 12.0833C10.4 12.8049 10.0486 13.4412 9.51055 13.8163L9.15556 14.0639L9.15556 14.5088L9.15554 15.8333L9.2 15.8333ZM5.6 7.5L3.2 7.5L3.2 5.83333L5.6 5.83333L5.6 7.5ZM3.2 5L5.6 5L5.6 3.33333L3.2 3.33333L3.2 5Z" fill="rgb(30.6,30.6,30.6)" fill-rule="evenodd" />
</svg>
