<svg viewBox="0 0 24 25" xmlns="http://www.w3.org/2000/svg" xmlns:xlink="http://www.w3.org/1999/xlink" width="24.000000" height="25.000000" fill="none" customFrame="#000000">
	<rect id="Right bold" width="24.000000" height="25.000000" x="0.000000" y="0.000000" transform="matrix(-1,0,0,1,24,0)" />
	<path id="Union" d="M11.0374 11.4357L12.6711 11.4357L12.6711 0.658365L12.6711 0.326735L12.6711 7.14101e-08L12.3444 7.14101e-08L12.0176 7.14101e-08L1.2354 0L1.2354 1.63367L7.79446 1.63367C8.59205 1.63367 9.38662 1.53586 10.1604 1.34241C10.2636 1.3166 10.3277 1.45124 10.2426 1.51509L9.27967 2.23727C9.09037 2.37925 8.91138 2.53449 8.74406 2.70182L0 11.4463L1.22526 12.6715L9.96939 3.92699C10.1367 3.75972 10.2918 3.58079 10.4338 3.39154L11.156 2.42854C11.2199 2.3434 11.3545 2.40748 11.3287 2.51073C11.1353 3.2845 11.0374 4.07907 11.0374 4.87666L11.0374 11.4357Z" fill="rgb(153,153,153)" fill-rule="evenodd" transform="matrix(-0.692532,0.721387,0.692532,0.721387,11.9998,3.38477)" />
</svg>
