<svg viewBox="0 0 14.3232 14.3239" xmlns="http://www.w3.org/2000/svg" xmlns:xlink="http://www.w3.org/1999/xlink" width="14.323242" height="14.323883" fill="none" customFrame="#000000">
	<path id="Vector" d="M5.43707 0.859863C5.32404 0.961313 5.2057 1.0567 5.08256 1.14562C4.86914 1.28886 4.62922 1.38769 4.37712 1.43782C4.26755 1.45931 4.15296 1.46862 3.9245 1.48652C3.35084 1.53236 3.06365 1.55528 2.82444 1.63979C2.55086 1.73622 2.30237 1.89275 2.09725 2.09787C1.89213 2.30299 1.73559 2.55148 1.63916 2.82507C1.55465 3.06427 1.53173 3.35146 1.4859 3.92512C1.47767 4.07675 1.46142 4.22784 1.4372 4.37775C1.38707 4.62985 1.28823 4.86977 1.145 5.08319C1.08269 5.17629 1.00821 5.26367 0.859239 5.4377C0.486108 5.876 0.299185 6.09515 0.189609 6.32433C-0.063203 6.85431 -0.063203 7.47022 0.189609 8.0002C0.299185 8.22938 0.486108 8.44853 0.859239 8.88683C1.00821 9.06086 1.08269 9.14824 1.145 9.24134C1.28823 9.45476 1.38707 9.69468 1.4372 9.94678C1.45868 10.0564 1.46799 10.1709 1.4859 10.3994C1.53173 10.9731 1.55465 11.2603 1.63916 11.4995C1.73559 11.773 1.89213 12.0215 2.09725 12.2267C2.30237 12.4318 2.55086 12.5883 2.82444 12.6847C3.06365 12.7693 3.35084 12.7922 3.9245 12.838C4.15296 12.8559 4.26755 12.8652 4.37712 12.8867C4.62922 12.9368 4.86914 13.0364 5.08256 13.1789C5.17567 13.2412 5.26304 13.3157 5.43707 13.4647C5.87538 13.8378 6.09453 14.0247 6.32371 14.1343C6.85368 14.3871 7.4696 14.3871 7.99957 14.1343C8.22875 14.0247 8.4479 13.8378 8.88621 13.4647C9.06024 13.3157 9.14761 13.2412 9.24072 13.1789C9.45414 13.0357 9.69406 12.9368 9.94616 12.8867C10.0557 12.8652 10.1703 12.8559 10.3988 12.838C10.9724 12.7922 11.2596 12.7693 11.4988 12.6847C11.7724 12.5883 12.0209 12.4318 12.226 12.2267C12.4312 12.0215 12.5877 11.773 12.6841 11.4995C12.7686 11.2603 12.7915 10.9731 12.8374 10.3994C12.8553 10.1709 12.8646 10.0564 12.8861 9.94678C12.9362 9.69468 13.0358 9.45476 13.1783 9.24134C13.2406 9.14824 13.3151 9.06086 13.464 8.88683C13.8372 8.44853 14.0241 8.22938 14.1337 8.0002C14.3865 7.47022 14.3865 6.85431 14.1337 6.32433C14.0241 6.09515 13.8372 5.876 13.464 5.4377C13.3626 5.32466 13.2672 5.20633 13.1783 5.08319C13.035 4.8698 12.9356 4.62998 12.8861 4.37775C12.8619 4.22784 12.8456 4.07675 12.8374 3.92512C12.7915 3.35146 12.7686 3.06427 12.6841 2.82507C12.5877 2.55148 12.4312 2.30299 12.226 2.09787C12.0209 1.89275 11.7724 1.73622 11.4988 1.63979C11.2596 1.55528 10.9724 1.53236 10.3988 1.48652C10.2472 1.4783 10.0961 1.46204 9.94616 1.43782C9.69392 1.38828 9.4541 1.28894 9.24072 1.14562C9.11758 1.0567 8.99924 0.961313 8.88621 0.859863C8.4479 0.486732 8.22875 0.299808 7.99957 0.190233C7.73798 0.0650239 7.45165 3.05176e-05 7.16164 3.05176e-05C6.87163 3.05176e-05 6.5853 0.0650239 6.32371 0.190233C6.09453 0.299808 5.87538 0.486732 5.43707 0.859863ZM9.90533 4.41929C10.0144 4.52858 10.0757 4.67668 10.0757 4.83109C10.0757 4.9855 10.0144 5.1336 9.90533 5.2429L5.24227 9.90667C5.18914 9.96483 5.12478 10.0116 5.05306 10.0442C4.98135 10.0768 4.90378 10.0945 4.82503 10.0963C4.74628 10.098 4.66799 10.0838 4.59488 10.0545C4.52177 10.0252 4.45536 9.98137 4.39966 9.92567C4.34397 9.86997 4.30013 9.80357 4.27081 9.73046C4.24149 9.65735 4.22729 9.57906 4.22906 9.50031C4.23084 9.42156 4.24856 9.34399 4.28114 9.27227C4.31373 9.20056 4.36051 9.1362 4.41866 9.08307L9.08101 4.42C9.1903 4.31093 9.3384 4.24967 9.49281 4.24967C9.64722 4.24967 9.79532 4.31093 9.90462 4.42M9.88098 9.10598C9.88098 9.31207 9.79911 9.50972 9.65339 9.65545C9.50766 9.80117 9.31001 9.88304 9.10393 9.88304C8.89784 9.88304 8.70019 9.80117 8.55446 9.65545C8.40874 9.50972 8.32687 9.31207 8.32687 9.10598C8.32687 8.89989 8.40874 8.70225 8.55446 8.55652C8.70019 8.41079 8.89784 8.32892 9.10393 8.32892C9.31001 8.32892 9.50766 8.41079 9.65339 8.55652C9.79911 8.70225 9.88098 8.89989 9.88098 9.10598ZM5.21864 5.99775C5.42473 5.99775 5.62237 5.91588 5.7681 5.77016C5.91383 5.62443 5.9957 5.42678 5.9957 5.22069C5.9957 5.01461 5.91383 4.81696 5.7681 4.67123C5.62237 4.52551 5.42473 4.44364 5.21864 4.44364C5.01255 4.44364 4.8149 4.52551 4.66918 4.67123C4.52345 4.81696 4.44158 5.01461 4.44158 5.22069C4.44158 5.42678 4.52345 5.62443 4.66918 5.77016C4.8149 5.91588 5.01255 5.99775 5.21864 5.99775Z" fill="rgb(26,26,26)" fill-opacity="0.400000006" fill-rule="evenodd" />
</svg>
