<svg viewBox="0 0 12.5024 12.5024" xmlns="http://www.w3.org/2000/svg" xmlns:xlink="http://www.w3.org/1999/xlink" width="12.502441" height="12.502441" fill="none" customFrame="#000000">
	<path id="Rectangle 37672495 (Stroke)" d="M6.25122 0C6.80351 0 7.25122 0.447715 7.25122 1L7.25122 5.25122L11.5024 5.25122C12.0547 5.25122 12.5024 5.69894 12.5024 6.25122C12.5024 6.80351 12.0547 7.25122 11.5024 7.25122L7.25122 7.25122L7.25122 11.5024C7.25122 12.0547 6.80351 12.5024 6.25122 12.5024C5.69894 12.5024 5.25122 12.0547 5.25122 11.5024L5.25122 7.25122L1 7.25122C0.447715 7.25122 0 6.80351 0 6.25122C0 5.69894 0.447715 5.25122 1 5.25122L5.25122 5.25122L5.25122 1C5.25122 0.447715 5.69894 0 6.25122 0Z" fill="rgb(30.6,30.6,30.6)" fill-rule="evenodd" />
</svg>
