<svg viewBox="0 0 16.6021 17.2765" xmlns="http://www.w3.org/2000/svg" xmlns:xlink="http://www.w3.org/1999/xlink" width="16.602097" height="17.276455" fill="none" customFrame="#000000">
	<path id="Vector (Stroke)" d="M1.36082 4.51439L14.0206 0.118867C14.4774 -0.0394561 15.3327 -0.147736 16.0206 0.530328C16.712 1.21184 16.6514 2.11164 16.5178 2.59894L12.9014 15.7814C12.9012 15.7822 12.901 15.783 12.9008 15.7838C12.8434 15.9938 12.7387 16.2838 12.5326 16.5592C12.3223 16.8402 11.9026 17.2297 11.2576 17.2727C10.6167 17.3154 10.156 16.989 9.91611 16.7463C9.67793 16.5053 9.53586 16.2359 9.45066 16.037L9.44965 16.0346L7.82884 12.2352C7.4697 11.3933 7.34717 10.482 7.45063 9.599C6.67742 9.73996 5.87159 9.68342 5.10504 9.41723L1.35417 8.11468C1.16801 8.05003 0.902268 7.93526 0.651495 7.72141C0.407854 7.51364 -0.00377699 7.0435 8.80594e-05 6.30673C0.00393785 5.57287 0.417576 5.10864 0.659122 4.90464C0.909189 4.69343 1.17395 4.57927 1.36082 4.51439ZM8.09997 7.63102C8.25377 7.54767 8.40204 7.45074 8.54311 7.34054L11.1635 5.29335C11.3855 5.11989 11.666 5.41207 11.4995 5.64335L9.65527 8.20479C9.57109 8.3217 9.49506 8.44324 9.42727 8.56854C9.38248 8.65132 9.34128 8.73574 9.30371 8.82155C8.92803 9.67955 8.91462 10.6761 9.29098 11.5584L10.9118 15.3579C11.0604 15.7047 11.2626 15.6922 11.3621 15.3268L14.9793 2.14107C15.0775 1.78321 14.8765 1.57871 14.5257 1.7003L2.017 6.04337L1.86676 6.09554C1.51061 6.2192 1.51393 6.41333 1.86013 6.53354L2.02527 6.59089L5.61106 7.83611C6.43999 8.12397 7.33784 8.04408 8.09997 7.63102Z" fill="rgb(30.6,30.6,30.6)" fill-rule="evenodd" />
</svg>
