<svg viewBox="0 0 13.9305 11.5448" xmlns="http://www.w3.org/2000/svg" xmlns:xlink="http://www.w3.org/1999/xlink" width="13.930542" height="11.544846" fill="none" customFrame="#000000">
	<path id="Vector" d="M8.43935 1.74804C7.19181 2.26757 4.69675 3.34193 0.957354 4.9711C0.351226 5.21162 0.0321273 5.44894 0.0032641 5.67985C-0.0448413 6.0695 0.44423 6.22344 1.10969 6.4335L1.3903 6.52169C2.04454 6.73496 2.92647 6.98351 3.38347 6.99313C3.80038 7.00275 4.2638 6.83278 4.77532 6.48C8.26937 4.12124 10.0733 2.92982 10.1856 2.90417C10.2657 2.88493 10.378 2.86248 10.4518 2.92982C10.5271 2.99557 10.5191 3.12225 10.5111 3.15592C10.463 3.36277 8.54358 5.14588 7.551 6.0695C7.24152 6.35813 7.02184 6.56178 6.97694 6.60828C6.87808 6.70932 6.77757 6.80876 6.67548 6.90654C6.06615 7.49342 5.61075 7.93279 6.69954 8.65116C7.22389 8.99752 7.644 9.28134 8.06252 9.56676C8.51792 9.87785 8.97332 10.1873 9.56341 10.5754C9.71254 10.6716 9.85685 10.7758 9.99636 10.8752C10.5271 11.2537 11.0066 11.5936 11.5951 11.5391C11.9382 11.507 12.2926 11.1863 12.4722 10.2242C12.8971 7.95203 13.7325 3.03085 13.925 1.0024C13.9367 0.83378 13.9297 0.664376 13.9041 0.497295C13.889 0.362473 13.8238 0.238262 13.7213 0.149333C13.5754 0.0486157 13.4015 -0.00356412 13.2242 0.000206085C12.7432 0.00822365 12.0007 0.266389 8.43935 1.74804Z" fill="rgb(30.6,30.6,30.6)" fill-rule="nonzero" />
</svg>
