<svg viewBox="0 0 12.7168 10.8499" xmlns="http://www.w3.org/2000/svg" xmlns:xlink="http://www.w3.org/1999/xlink" width="12.716797" height="10.849915" fill="none" customFrame="#000000">
	<path id="Union" d="M11.025 3.05176e-05C10.0907 3.05176e-05 9.33335 0.757417 9.33335 1.6917L9.33335 9.15827C9.33335 10.0925 10.0907 10.8499 11.025 10.8499C11.9593 10.8499 12.7167 10.0925 12.7167 9.15827L12.7167 1.6917C12.7167 0.757417 11.9593 3.05176e-05 11.025 3.05176e-05ZM6.35834 2.39489C5.42406 2.39489 4.66668 3.15228 4.66668 4.08656L4.66668 9.15827C4.66668 10.0925 5.42406 10.8499 6.35834 10.8499C7.29263 10.8499 8.05001 10.0925 8.05001 9.15827L8.05001 4.08656C8.05001 3.15228 7.29263 2.39489 6.35834 2.39489ZM1.69167 4.31437C0.757387 4.31437 0 5.07176 0 6.00604L0 9.15827C0 10.0925 0.757387 10.8499 1.69167 10.8499C2.62595 10.8499 3.38334 10.0925 3.38334 9.15827L3.38334 6.00604C3.38334 5.07176 2.62595 4.31437 1.69167 4.31437Z" fill="rgb(26,26,26)" fill-opacity="0.400000006" fill-rule="evenodd" />
</svg>
